# This file uses centimeters as units for non-parametric coordinates.

mtllib Asteroid1.mtl
g default
v -0.785145 0.456849 0.242119
v -0.461292 0.475763 0.270260
v -0.142315 0.312724 0.512830
v 0.379315 0.111647 0.765184
v -0.763576 0.917933 0.354530
v -0.305847 0.568340 0.610756
v 0.381562 0.362368 0.846588
v 0.707520 0.512821 0.811030
v -0.302012 1.390369 0.441888
v 0.263388 1.503163 0.698065
v 0.775025 1.212821 0.682488
v 0.901542 0.919205 0.628725
v -0.078802 1.612235 0.472043
v 0.418619 1.593825 0.528567
v 0.777640 1.408973 0.511338
v 0.983344 1.288009 0.462319
v -0.078090 1.577859 0.074186
v 0.344397 1.889746 0.202003
v 0.884300 1.631819 0.200667
v 0.886943 1.240764 0.289760
v 0.068623 1.645631 -0.126570
v 0.499915 1.994783 -0.199989
v 0.866735 1.852509 -0.166695
v 0.793498 1.222361 0.122478
v 0.155066 1.706067 -0.310992
v 0.469296 1.752372 -0.256995
v 0.634776 1.671203 -0.271326
v 0.778610 1.270668 -0.424986
v -0.163456 1.377859 -0.545033
v 0.268859 1.442230 -0.622376
v 0.381017 1.004260 -0.818048
v 0.670601 0.540154 -0.580581
v -0.552119 1.069750 -0.647637
v -0.145629 0.621268 -0.846588
v 0.191924 0.608701 -0.730216
v 0.497437 0.366725 -0.573585
v -0.678733 0.685729 -0.571869
v -0.190355 0.782450 -0.569790
v 0.059968 0.571015 -0.573648
v 0.354858 0.273267 -0.560948
v -0.680281 0.649005 -0.137189
v -0.413950 0.495073 -0.112422
v 0.008070 0.272277 -0.343568
v 0.341072 0.297349 -0.366613
v -0.711997 0.553269 0.071481
v -0.499363 0.493097 0.113457
v -0.085593 0.300473 0.403672
v 0.275716 0.289632 0.178455
v 0.728610 0.249591 -0.283207
v 0.879447 0.370095 0.448241
v 0.936426 0.572972 -0.039200
v 0.955019 0.825217 0.353644
v -0.983344 1.020099 -0.321313
v -0.868185 0.887516 0.045080
v -0.302783 1.434301 -0.332186
v -0.441441 1.386889 0.080573
vt 0.375000 0.000000
vt 0.458333 0.000000
vt 0.541667 0.000000
vt 0.625000 0.000000
vt 0.375000 0.083333
vt 0.458333 0.083333
vt 0.541667 0.083333
vt 0.625000 0.083333
vt 0.375000 0.166667
vt 0.458333 0.166667
vt 0.541667 0.166667
vt 0.625000 0.166667
vt 0.375000 0.250000
vt 0.458333 0.250000
vt 0.541667 0.250000
vt 0.625000 0.250000
vt 0.375000 0.333333
vt 0.458333 0.333333
vt 0.541667 0.333333
vt 0.625000 0.333333
vt 0.375000 0.416667
vt 0.458333 0.416667
vt 0.541667 0.416667
vt 0.625000 0.416667
vt 0.375000 0.500000
vt 0.458333 0.500000
vt 0.541667 0.500000
vt 0.625000 0.500000
vt 0.375000 0.583333
vt 0.458333 0.583333
vt 0.541667 0.583333
vt 0.625000 0.583333
vt 0.375000 0.666667
vt 0.458333 0.666667
vt 0.541667 0.666667
vt 0.625000 0.666667
vt 0.375000 0.750000
vt 0.458333 0.750000
vt 0.541667 0.750000
vt 0.625000 0.750000
vt 0.375000 0.833333
vt 0.458333 0.833333
vt 0.541667 0.833333
vt 0.625000 0.833333
vt 0.375000 0.916667
vt 0.458333 0.916667
vt 0.541667 0.916667
vt 0.625000 0.916667
vt 0.375000 1.000000
vt 0.458333 1.000000
vt 0.541667 1.000000
vt 0.625000 1.000000
vt 0.875000 0.000000
vt 0.791667 0.000000
vt 0.708333 0.000000
vt 0.875000 0.083333
vt 0.791667 0.083333
vt 0.708333 0.083333
vt 0.875000 0.166667
vt 0.791667 0.166667
vt 0.708333 0.166667
vt 0.875000 0.250000
vt 0.791667 0.250000
vt 0.708333 0.250000
vt 0.125000 0.000000
vt 0.208333 0.000000
vt 0.291667 0.000000
vt 0.125000 0.083333
vt 0.208333 0.083333
vt 0.291667 0.083333
vt 0.125000 0.166667
vt 0.208333 0.166667
vt 0.291667 0.166667
vt 0.125000 0.250000
vt 0.208333 0.250000
vt 0.291667 0.250000
vn -0.469627 -0.464179 0.750992
vn -0.469627 -0.464179 0.750992
vn -0.469627 -0.464179 0.750992
vn -0.469627 -0.464179 0.750992
vn -0.513663 -0.573200 0.638430
vn -0.513663 -0.573200 0.638430
vn -0.513663 -0.573200 0.638430
vn -0.513663 -0.573200 0.638430
vn -0.253238 -0.296690 0.920785
vn -0.253238 -0.296690 0.920785
vn -0.253238 -0.296690 0.920785
vn -0.253238 -0.296690 0.920785
vn -0.405293 0.185772 0.895112
vn -0.405293 0.185772 0.895112
vn -0.405293 0.185772 0.895112
vn -0.405293 0.185772 0.895112
vn -0.133506 0.114336 0.984431
vn -0.133506 0.114336 0.984431
vn -0.133506 0.114336 0.984431
vn -0.133506 0.114336 0.984431
vn 0.237814 0.153197 0.959154
vn 0.237814 0.153197 0.959154
vn 0.237814 0.153197 0.959154
vn 0.237814 0.153197 0.959154
vn -0.268009 0.644007 0.716538
vn -0.268009 0.644007 0.716538
vn -0.268009 0.644007 0.716538
vn -0.268009 0.644007 0.716538
vn 0.365424 0.621707 0.692781
vn 0.365424 0.621707 0.692781
vn 0.365424 0.621707 0.692781
vn 0.365424 0.621707 0.692781
vn 0.627726 0.328006 0.705955
vn 0.627726 0.328006 0.705955
vn 0.627726 0.328006 0.705955
vn 0.627726 0.328006 0.705955
vn -0.347608 0.870102 0.349415
vn -0.347608 0.870102 0.349415
vn -0.347608 0.870102 0.349415
vn -0.347608 0.870102 0.349415
vn 0.363697 0.713250 0.599166
vn 0.363697 0.713250 0.599165
vn 0.363697 0.713250 0.599166
vn 0.363697 0.713250 0.599166
vn 0.910166 0.382757 0.158413
vn 0.910166 0.382757 0.158413
vn 0.910166 0.382757 0.158413
vn 0.910166 0.382757 0.158413
vn -0.607243 0.790699 -0.077791
vn -0.607243 0.790699 -0.077791
vn -0.607243 0.790699 -0.077791
vn -0.607243 0.790699 -0.077791
vn 0.354505 0.836551 0.417742
vn 0.354505 0.836551 0.417742
vn 0.354505 0.836551 0.417742
vn 0.354505 0.836551 0.417742
vn 0.952263 -0.161734 -0.258916
vn 0.952263 -0.161734 -0.258916
vn 0.952263 -0.161734 -0.258916
vn 0.952263 -0.161734 -0.258916
vn -0.383384 0.692766 -0.610812
vn -0.383384 0.692766 -0.610812
vn -0.383384 0.692766 -0.610812
vn -0.383384 0.692766 -0.610812
vn 0.147748 0.271260 -0.951099
vn 0.147748 0.271260 -0.951099
vn 0.147748 0.271260 -0.951099
vn 0.147748 0.271260 -0.951099
vn 0.933944 0.017032 -0.357012
vn 0.933944 0.017032 -0.357012
vn 0.933944 0.017032 -0.357012
vn 0.933944 0.017032 -0.357012
vn -0.129513 0.732681 -0.668135
vn -0.129513 0.732681 -0.668135
vn -0.129513 0.732681 -0.668135
vn -0.129513 0.732681 -0.668135
vn 0.399697 0.519316 -0.755350
vn 0.399697 0.519316 -0.755350
vn 0.399697 0.519316 -0.755350
vn 0.399697 0.519316 -0.755350
vn 0.602921 0.228126 -0.764490
vn 0.602921 0.228126 -0.764490
vn 0.602921 0.228126 -0.764490
vn 0.602921 0.228126 -0.764490
vn -0.136791 0.363982 -0.921306
vn -0.136791 0.363982 -0.921306
vn -0.136791 0.363982 -0.921306
vn -0.136791 0.363982 -0.921306
vn -0.042354 0.132037 -0.990340
vn -0.042354 0.132037 -0.990340
vn -0.042354 0.132037 -0.990339
vn -0.042354 0.132037 -0.990340
vn 0.243354 -0.308208 -0.919667
vn 0.243354 -0.308208 -0.919667
vn 0.243354 -0.308208 -0.919667
vn 0.243354 -0.308208 -0.919667
vn -0.401316 -0.673526 -0.620732
vn -0.401316 -0.673526 -0.620733
vn -0.401316 -0.673526 -0.620732
vn -0.401316 -0.673526 -0.620732
vn -0.372319 -0.921467 0.110798
vn -0.372319 -0.921467 0.110798
vn -0.372319 -0.921467 0.110798
vn -0.372319 -0.921467 0.110798
vn -0.247174 -0.529550 -0.811469
vn -0.247174 -0.529550 -0.811469
vn -0.247174 -0.529551 -0.811469
vn -0.247174 -0.529550 -0.811469
vn -0.058177 -0.933494 -0.353843
vn -0.058177 -0.933494 -0.353843
vn -0.058177 -0.933494 -0.353843
vn -0.058177 -0.933494 -0.353843
vn -0.557568 -0.507990 -0.656554
vn -0.557569 -0.507990 -0.656554
vn -0.557568 -0.507990 -0.656554
vn -0.557569 -0.507990 -0.656554
vn -0.340931 -0.764298 -0.547370
vn -0.340931 -0.764298 -0.547370
vn -0.340931 -0.764298 -0.547370
vn -0.340931 -0.764298 -0.547370
vn -0.355324 -0.886906 -0.295200
vn -0.355324 -0.886906 -0.295200
vn -0.355324 -0.886906 -0.295200
vn -0.355324 -0.886906 -0.295200
vn -0.441130 -0.895628 -0.057045
vn -0.441130 -0.895628 -0.057045
vn -0.441130 -0.895628 -0.057045
vn -0.441130 -0.895628 -0.057045
vn 0.027351 -0.999441 0.019202
vn 0.027351 -0.999441 0.019202
vn 0.027351 -0.999441 0.019202
vn 0.027351 -0.999442 0.019202
vn -0.029301 -0.943237 -0.330826
vn -0.029301 -0.943237 -0.330826
vn -0.029301 -0.943237 -0.330826
vn -0.029301 -0.943237 -0.330826
vn -0.408876 -0.911425 -0.046093
vn -0.408876 -0.911425 -0.046093
vn -0.408876 -0.911425 -0.046093
vn -0.408876 -0.911425 -0.046093
vn -0.221938 -0.951795 -0.211730
vn -0.221938 -0.951795 -0.211730
vn -0.221938 -0.951795 -0.211730
vn -0.221938 -0.951795 -0.211730
vn 0.114766 -0.964785 -0.236683
vn 0.114766 -0.964785 -0.236683
vn 0.114766 -0.964785 -0.236683
vn 0.114766 -0.964785 -0.236683
vn 0.001543 -0.996127 0.087910
vn 0.001543 -0.996127 0.087910
vn 0.001543 -0.996127 0.087910
vn 0.001543 -0.996127 0.087910
vn 0.459110 -0.888379 0.000049
vn 0.459110 -0.888379 0.000049
vn 0.459110 -0.888379 0.000049
vn 0.459110 -0.888379 0.000049
vn 0.784203 -0.360395 -0.505116
vn 0.784203 -0.360395 -0.505116
vn 0.784203 -0.360395 -0.505116
vn 0.784203 -0.360395 -0.505116
vn 0.941098 -0.336787 -0.030164
vn 0.941098 -0.336787 -0.030164
vn 0.941098 -0.336787 -0.030164
vn 0.941098 -0.336787 -0.030164
vn 0.909965 -0.162074 0.381700
vn 0.909966 -0.162074 0.381700
vn 0.909965 -0.162074 0.381700
vn 0.909965 -0.162074 0.381700
vn 0.965404 0.081389 -0.247731
vn 0.965404 0.081389 -0.247731
vn 0.965404 0.081389 -0.247731
vn 0.965404 0.081389 -0.247731
vn 0.933676 0.211533 -0.288967
vn 0.933676 0.211533 -0.288967
vn 0.933676 0.211533 -0.288967
vn 0.933676 0.211533 -0.288967
vn 0.995734 -0.041605 -0.082356
vn 0.995734 -0.041605 -0.082356
vn 0.995734 -0.041605 -0.082356
vn 0.995734 -0.041605 -0.082355
vn -0.794717 -0.355124 -0.492252
vn -0.794717 -0.355124 -0.492251
vn -0.794717 -0.355124 -0.492251
vn -0.794717 -0.355124 -0.492252
vn -0.818691 -0.564491 -0.105328
vn -0.818691 -0.564492 -0.105328
vn -0.818691 -0.564492 -0.105328
vn -0.818691 -0.564492 -0.105328
vn -0.984408 -0.171054 0.040993
vn -0.984408 -0.171054 0.040993
vn -0.984408 -0.171054 0.040993
vn -0.984408 -0.171054 0.040993
vn -0.457445 0.739806 -0.493387
vn -0.457445 0.739806 -0.493387
vn -0.457445 0.739806 -0.493387
vn -0.457445 0.739806 -0.493387
vn -0.630622 0.760131 0.156582
vn -0.630622 0.760131 0.156582
vn -0.630622 0.760131 0.156582
vn -0.630622 0.760130 0.156582
vn -0.732158 0.639661 0.234049
vn -0.732158 0.639661 0.234049
vn -0.732158 0.639661 0.234049
vn -0.732158 0.639661 0.234049
vn -0.482894 0.834287 -0.266041
vn -0.482894 0.834287 -0.266041
vn -0.482895 0.834287 -0.266041
vn -0.482895 0.834287 -0.266041
vn -0.468622 0.881843 -0.052413
vn -0.468622 0.881843 -0.052413
vn -0.468622 0.881843 -0.052413
vn -0.468622 0.881843 -0.052413
vn -0.576105 0.814816 0.064636
vn -0.576105 0.814816 0.064636
vn -0.576105 0.814816 0.064636
vn -0.576105 0.814816 0.064636
s off
g Asteroid2
usemtl initialShadingGroup
f 1/1/1 2/2/2 6/6/3 5/5/4
f 2/2/5 3/3/6 7/7/7 6/6/8
f 3/3/9 4/4/10 8/8/11 7/7/12
f 5/5/13 6/6/14 10/10/15 9/9/16
f 6/6/17 7/7/18 11/11/19 10/10/20
f 7/7/21 8/8/22 12/12/23 11/11/24
f 9/9/25 10/10/26 14/14/27 13/13/28
f 10/10/29 11/11/30 15/15/31 14/14/32
f 11/11/33 12/12/34 16/16/35 15/15/36
f 13/13/37 14/14/38 18/18/39 17/17/40
f 14/14/41 15/15/42 19/19/43 18/18/44
f 15/15/45 16/16/46 20/20/47 19/19/48
f 17/17/49 18/18/50 22/22/51 21/21/52
f 18/18/53 19/19/54 23/23/55 22/22/56
f 19/19/57 20/20/58 24/24/59 23/23/60
f 21/21/61 22/22/62 26/26/63 25/25/64
f 22/22/65 23/23/66 27/27/67 26/26/68
f 23/23/69 24/24/70 28/28/71 27/27/72
f 25/25/73 26/26/74 30/30/75 29/29/76
f 26/26/77 27/27/78 31/31/79 30/30/80
f 27/27/81 28/28/82 32/32/83 31/31/84
f 29/29/85 30/30/86 34/34/87 33/33/88
f 30/30/89 31/31/90 35/35/91 34/34/92
f 31/31/93 32/32/94 36/36/95 35/35/96
f 33/33/97 34/34/98 38/38/99 37/37/100
f 34/34/101 35/35/102 39/39/103 38/38/104
f 35/35/105 36/36/106 40/40/107 39/39/108
f 37/37/109 38/38/110 42/42/111 41/41/112
f 38/38/113 39/39/114 43/43/115 42/42/116
f 39/39/117 40/40/118 44/44/119 43/43/120
f 41/41/121 42/42/122 46/46/123 45/45/124
f 42/42/125 43/43/126 47/47/127 46/46/128
f 43/43/129 44/44/130 48/48/131 47/47/132
f 45/45/133 46/46/134 2/50/135 1/49/136
f 46/46/137 47/47/138 3/51/139 2/50/140
f 47/47/141 48/48/142 4/52/143 3/51/144
f 44/54/145 40/53/146 36/56/147 49/57/148
f 48/55/149 44/54/150 49/57/151 50/58/152
f 4/4/153 48/55/154 50/58/155 8/8/156
f 49/57/157 36/56/158 32/59/159 51/60/160
f 50/58/161 49/57/162 51/60/163 52/61/164
f 8/8/165 50/58/166 52/61/167 12/12/168
f 51/60/169 32/59/170 28/62/171 24/63/172
f 52/61/173 51/60/174 24/63/175 20/64/176
f 12/12/177 52/61/178 20/64/179 16/16/180
f 37/65/181 41/66/182 53/69/183 33/68/184
f 41/66/185 45/67/186 54/70/187 53/69/188
f 45/67/189 1/1/190 5/5/191 54/70/192
f 33/68/193 53/69/194 55/72/195 29/71/196
f 53/69/197 54/70/198 56/73/199 55/72/200
f 54/70/201 5/5/202 9/9/203 56/73/204
f 29/71/205 55/72/206 21/75/207 25/74/208
f 55/72/209 56/73/210 17/76/211 21/75/212
f 56/73/213 9/9/214 13/13/215 17/76/216
