# This file uses centimeters as units for non-parametric coordinates.

mtllib Frame.mtl
g default
v -0.742505 -1.000000 0.250000
v 0.735693 -1.000000 0.250000
v -0.742505 1.167193 0.250000
v 0.735693 1.167193 0.250000
v -0.742505 1.167193 -0.250000
v 0.735693 1.167193 -0.250000
v -0.742505 -1.000000 -0.250000
v 0.735693 -1.000000 -0.250000
v -0.675890 1.167193 0.250000
v -0.675890 -1.000000 0.250000
v 0.685890 1.167193 0.250000
v 0.685890 -1.000000 0.250000
v -0.675890 1.124676 0.250000
v 0.685890 1.124676 0.250000
v -0.675890 -0.917377 0.250000
v 0.685890 -0.917377 0.250000
v -0.601786 1.026613 0.143590
v 0.611786 1.026613 0.143590
v -0.601786 -0.814191 0.143590
v 0.611786 -0.814191 0.143590
v -0.107439 -0.814191 0.143590
v -0.131178 -0.917377 0.250000
v 0.094951 -0.814191 0.143590
v 0.113942 -0.917377 0.250000
v -0.107439 -0.878377 0.144333
v 0.094951 -0.878377 0.144333
vt 0.453070 0.007244
vt 0.655519 0.007244
vt 0.455345 0.371499
vt 0.647644 0.371788
vt 0.455727 0.467912
vt 0.647846 0.467912
vt 0.457390 0.851596
vt 0.649028 0.850865
vt 0.457839 0.947332
vt 0.649401 0.946554
vt 0.746140 0.007244
vt 0.738271 0.370675
vt 0.361008 0.007244
vt 0.363285 0.371689
vt 0.474376 0.371858
vt 0.478042 0.007244
vt 0.476998 0.947258
vt 0.630949 0.372074
vt 0.639093 0.007244
vt 0.632169 0.946636
vt 0.474035 0.353116
vt 0.631591 0.353116
vt 0.477856 0.021817
vt 0.638777 0.021817
vt 0.611767 0.321912
vt 0.494870 0.321912
vt 0.499136 0.051707
vt 0.616502 0.051707
vt 0.545920 0.051707
vt 0.542408 0.021817
vt 0.567290 0.051707
vt 0.571118 0.021817
vt 0.549779 0.035146
vt 0.563712 0.035146
vn -0.000000 0.000000 1.000000
vn -0.000000 0.000000 1.000000
vn -0.000000 0.000000 1.000000
vn -0.000000 0.000000 1.000000
vn -0.000001 0.000000 1.000000
vn -0.000001 0.000000 1.000000
vn 0.000000 1.000000 0.000000
vn 0.000000 1.000000 0.000000
vn 0.000000 1.000000 0.000000
vn 0.000000 1.000000 0.000000
vn 0.000000 1.000000 0.000000
vn 0.000000 1.000000 0.000000
vn 0.000000 0.000000 -1.000000
vn 0.000000 0.000000 -1.000000
vn 0.000000 0.000000 -1.000000
vn 0.000000 0.000000 -1.000000
vn 0.000000 -1.000000 0.000000
vn 0.000000 -1.000000 0.000000
vn 0.000000 -1.000000 0.000000
vn 0.000000 -1.000000 0.000000
vn 0.000000 -1.000000 0.000000
vn 0.000000 -1.000000 0.000000
vn 1.000000 0.000000 0.000000
vn 1.000000 0.000000 0.000000
vn 1.000000 0.000000 0.000000
vn 1.000000 0.000000 0.000000
vn -1.000000 0.000000 0.000000
vn -1.000000 0.000000 0.000000
vn -1.000000 0.000000 0.000000
vn -1.000000 0.000000 0.000000
vn 0.000000 0.000000 1.000000
vn 0.000000 0.000000 1.000000
vn 0.000000 0.000000 1.000000
vn 0.000000 0.000000 1.000000
vn 0.000000 0.000000 1.000000
vn 0.000000 0.000000 1.000000
vn 0.000000 0.000000 1.000000
vn 0.000000 0.000000 1.000000
vn 0.000000 0.000000 1.000000
vn 0.000000 0.000000 1.000000
vn 0.000000 0.000000 1.000000
vn 0.000000 0.000000 1.000000
vn 0.000000 0.000000 1.000000
vn 0.000000 0.000000 1.000000
vn 0.000000 -0.735361 0.677675
vn 0.000000 -0.735361 0.677675
vn 0.000000 -0.735361 0.677675
vn 0.000000 -0.735361 0.677675
vn 0.820616 0.000000 0.571480
vn 0.820616 0.000000 0.571479
vn 0.820616 0.000000 0.571479
vn 0.820616 0.000000 0.571480
vn 0.000000 0.717897 0.696149
vn 0.000000 0.717897 0.696149
vn 0.000000 0.717897 0.696149
vn 0.000000 0.717897 0.696149
vn -0.820616 0.000000 0.571479
vn -0.820616 0.000000 0.571480
vn -0.820616 0.000000 0.571480
vn -0.820616 0.000000 0.571479
vn 0.000000 0.717898 0.696148
vn 0.000000 0.717898 0.696148
vn 0.000000 0.717898 0.696148
vn 0.000000 0.717898 0.696148
vn -0.000000 0.938141 0.346252
vn -0.000000 0.938141 0.346252
vn -0.000000 0.938142 0.346252
vn -0.000000 0.938142 0.346252
vn 0.975477 0.002546 0.220088
vn 0.975477 0.002546 0.220088
vn 0.975477 0.002546 0.220088
vn -0.984096 0.002055 0.177626
vn -0.984096 0.002055 0.177626
vn -0.984096 0.002055 0.177626
vn 0.000000 0.011569 0.999933
vn 0.000000 0.011569 0.999933
vn 0.000000 0.011569 0.999933
vn 0.000000 0.011569 0.999933
s 1
g Frame
usemtl initialShadingGroup
f 11/18/1 14/22/2 16/24/3 12/19/4 2/2/5 4/4/6
s off
f 3/3/7 9/15/8 11/18/9 4/4/10 6/6/11 5/5/12
f 5/5/13 6/6/14 8/8/15 7/7/16
f 7/7/17 8/8/18 2/10/19 12/20/20 10/17/21 1/9/22
f 2/2/23 8/11/24 6/12/25 4/4/26
f 7/13/27 1/1/28 3/3/29 5/14/30
s 1
f 1/1/31 10/16/32 15/23/33 13/21/34 9/15/35 3/3/36
f 9/15/35 13/21/34 14/22/2 11/18/1
s off
f 18/25/37 17/26/38 19/27/39 21/29/40 23/31/41 20/28/42
s 1
f 16/24/3 24/32/43 22/30/44 15/23/33 10/16/32 12/19/4
s off
f 14/22/45 13/21/46 17/26/47 18/25/48
f 13/21/49 15/23/50 19/27/51 17/26/52
f 23/31/53 24/32/54 16/24/55 20/28/56
f 16/24/57 14/22/58 18/25/59 20/28/60
f 15/23/61 22/30/62 21/29/63 19/27/64
f 25/33/65 22/30/66 24/32/67 26/34/68
f 21/29/69 22/30/70 25/33/71
f 24/32/72 23/31/73 26/34/74
f 23/31/75 21/29/76 25/33/77 26/34/78
