# This file uses centimeters as units for non-parametric coordinates.

mtllib Paddle_Left.mtl
g default
v -0.059552 -0.699463 0.186946
v -0.058306 -0.690597 0.186946
v -0.059860 -0.681781 0.186946
v -0.063662 -0.673302 0.186946
v -0.133885 -0.624132 0.186946
v -0.230097 -0.580046 0.186946
v -0.236316 -0.586486 0.186946
v -0.240240 -0.594532 0.186946
v -0.165907 -0.669864 0.186946
v -0.095684 -0.719035 0.186946
v -0.086417 -0.719707 0.186946
v -0.077600 -0.718152 0.186946
v -0.069695 -0.713949 0.186946
v -0.063476 -0.707509 0.186946
v -0.059552 -0.699463 0.244175
v -0.058306 -0.690597 0.244175
v -0.059860 -0.681781 0.244175
v -0.063662 -0.673302 0.244175
v -0.133885 -0.624132 0.244175
v -0.230097 -0.580046 0.244175
v -0.236316 -0.586486 0.244175
v -0.240240 -0.594532 0.244175
v -0.165907 -0.669864 0.244175
v -0.095684 -0.719035 0.244175
v -0.086417 -0.719707 0.244175
v -0.077600 -0.718152 0.244175
v -0.069695 -0.713949 0.244175
v -0.063476 -0.707509 0.244175
v -0.149896 -0.646998 0.186946
v -0.149896 -0.646998 0.244175
v -0.133885 -0.624132 0.186946
v -0.204108 -0.574961 0.186946
v -0.204108 -0.574961 0.244175
v -0.133885 -0.624132 0.244175
v -0.213375 -0.574288 0.186946
v -0.213375 -0.574288 0.244175
v -0.222192 -0.575843 0.186946
v -0.222192 -0.575843 0.244175
v -0.230097 -0.580046 0.186946
v -0.230097 -0.580046 0.244175
v -0.240240 -0.594532 0.186946
v -0.241486 -0.603398 0.186946
v -0.241486 -0.603398 0.244175
v -0.240240 -0.594532 0.244175
v -0.239932 -0.612215 0.186946
v -0.239932 -0.612215 0.244175
v -0.236130 -0.620693 0.186946
v -0.236130 -0.620693 0.244175
v -0.165907 -0.669864 0.186946
v -0.165907 -0.669864 0.244175
v -0.149896 -0.646998 0.186946
v -0.236316 -0.586486 0.186946
v -0.149896 -0.646998 0.244175
v -0.236316 -0.586486 0.244175
vt 0.978849 0.228592
vt 0.963484 0.198437
vt 0.939552 0.174505
vt 0.909397 0.159140
vt 0.875970 0.153846
vt 0.842543 0.159140
vt 0.812387 0.174505
vt 0.788456 0.198437
vt 0.773091 0.228592
vt 0.767797 0.262019
vt 0.773091 0.295447
vt 0.788456 0.325602
vt 0.812387 0.349533
vt 0.842543 0.364898
vt 0.875970 0.370192
vt 0.909397 0.364898
vt 0.939552 0.349533
vt 0.963484 0.325602
vt 0.978849 0.295447
vt 0.984143 0.262019
vt 0.789431 0.370192
vt 0.798085 0.370192
vt 0.806739 0.370192
vt 0.815393 0.370192
vt 0.824047 0.370192
vt 0.832701 0.370192
vt 0.841354 0.370192
vt 0.850008 0.370192
vt 0.858662 0.370192
vt 0.867316 0.370192
vt 0.875970 0.370192
vt 0.884624 0.370192
vt 0.893277 0.370192
vt 0.901931 0.370192
vt 0.910585 0.370192
vt 0.919239 0.370192
vt 0.927893 0.370192
vt 0.936547 0.370192
vt 0.945200 0.370192
vt 0.953854 0.370192
vt 0.962508 0.370192
vt 0.789431 0.630458
vt 0.798085 0.630458
vt 0.806739 0.630458
vt 0.815393 0.630458
vt 0.824047 0.630458
vt 0.832701 0.630458
vt 0.841354 0.630458
vt 0.850008 0.630458
vt 0.858662 0.630458
vt 0.867316 0.630458
vt 0.875970 0.630458
vt 0.884624 0.630458
vt 0.893277 0.630458
vt 0.901931 0.630458
vt 0.910585 0.630458
vt 0.919239 0.630458
vt 0.927893 0.630458
vt 0.936547 0.630458
vt 0.945200 0.630458
vt 0.953854 0.630458
vt 0.962508 0.630458
vt 0.978849 0.704553
vt 0.963484 0.674398
vt 0.939552 0.650467
vt 0.909397 0.635102
vt 0.875970 0.629808
vt 0.842543 0.635102
vt 0.812387 0.650467
vt 0.788456 0.674398
vt 0.773091 0.704553
vt 0.767797 0.737981
vt 0.773091 0.771408
vt 0.788456 0.801563
vt 0.812387 0.825495
vt 0.842543 0.840859
vt 0.875970 0.846154
vt 0.909397 0.840859
vt 0.939552 0.825495
vt 0.963484 0.801563
vt 0.978849 0.771408
vt 0.984143 0.737981
vt 0.875970 0.257692
vt 0.875970 0.733654
vt 0.824047 0.630458
vt 0.824047 0.370192
vt 0.858662 0.370192
vt 0.858662 0.630458
vt 0.875970 0.630458
vt 0.875970 0.370192
vt 0.910585 0.370192
vt 0.910585 0.630458
vt 0.875970 0.153846
vt 0.875970 0.257692
vt 0.767797 0.262019
vt 0.773091 0.228592
vt 0.773091 0.295447
vt 0.875970 0.370192
vt 0.875970 0.733654
vt 0.875970 0.846154
vt 0.773091 0.771408
vt 0.767797 0.737981
vt 0.773091 0.704553
vt 0.875970 0.629808
vt 0.773091 0.228592
vt 0.773091 0.771408
vn 0.956304 -0.292373 -0.000000
vn 0.999848 0.017452 -0.000000
vn 0.999848 0.017452 -0.000000
vn 0.956304 -0.292373 -0.000000
vn 0.955242 0.295824 -0.000000
vn 0.955242 0.295824 -0.000000
vn 0.614435 0.788967 -0.000000
vn 0.614435 0.788967 -0.000000
vn 0.573577 0.819152 -0.000000
vn 0.573577 0.819152 -0.000000
vn 0.573576 0.819152 -0.000000
vn 0.531238 0.847223 -0.000000
vn 0.531238 0.847223 -0.000000
vn 0.573576 0.819152 -0.000000
vn -0.048729 0.998812 -0.000000
vn -0.048729 0.998812 -0.000000
vn -0.325568 0.945519 -0.000000
vn -0.325568 0.945519 -0.000000
vn -0.469472 0.882948 -0.000000
vn -0.469472 0.882948 -0.000000
vn -0.719340 0.694658 0.000000
vn -0.819152 0.573576 0.000000
vn -0.819152 0.573576 0.000000
vn -0.719340 0.694658 0.000000
vn -0.898794 0.438371 0.000000
vn -0.898794 0.438371 0.000000
vn -0.990268 0.139173 0.000000
vn -0.999848 -0.017453 0.000000
vn -0.999848 -0.017453 0.000000
vn -0.990268 0.139173 0.000000
vn -0.955242 -0.295824 0.000000
vn -0.955242 -0.295824 0.000000
vn -0.614435 -0.788967 0.000000
vn -0.614435 -0.788967 0.000000
vn -0.573577 -0.819152 0.000000
vn -0.573577 -0.819152 0.000000
vn -0.573576 -0.819152 -0.000000
vn -0.531238 -0.847223 -0.000000
vn -0.531238 -0.847223 -0.000000
vn -0.573576 -0.819152 -0.000000
vn 0.048729 -0.998812 0.000000
vn 0.048729 -0.998812 0.000000
vn 0.325568 -0.945518 0.000000
vn 0.325568 -0.945518 0.000000
vn 0.601815 -0.798636 -0.000000
vn 0.601815 -0.798636 -0.000000
vn 0.819151 -0.573577 -0.000000
vn 0.819151 -0.573577 -0.000000
vn 0.000000 0.000000 -1.000000
vn -0.000000 -0.000000 -1.000000
vn 0.000000 0.000000 -1.000000
vn -0.000000 0.000000 -1.000000
vn -0.000000 0.000000 -1.000000
vn 0.000000 0.000000 -1.000000
vn 0.000000 0.000000 -1.000000
vn 0.000000 0.000000 -1.000000
vn 0.000000 0.000000 -1.000000
vn 0.000000 0.000000 -1.000000
vn -0.000000 -0.000000 -1.000000
vn -0.000000 -0.000000 -1.000000
vn -0.000000 -0.000000 -1.000000
vn -0.000000 -0.000000 -1.000000
vn -0.000000 -0.000000 -1.000000
vn -0.000000 -0.000000 -1.000000
vn 0.000000 0.000000 -1.000000
vn 0.000000 0.000000 -1.000000
vn 0.000000 0.000000 -1.000000
vn -0.000000 -0.000000 -1.000000
vn -0.000000 -0.000000 -1.000000
vn 0.000000 0.000000 -1.000000
vn 0.000000 0.000000 -1.000000
vn -0.000000 -0.000000 -1.000000
vn -0.000000 -0.000000 1.000000
vn 0.000000 0.000000 1.000000
vn 0.000000 0.000000 1.000000
vn -0.000000 0.000000 1.000000
vn -0.000000 0.000000 1.000000
vn 0.000000 0.000000 1.000000
vn 0.000000 0.000000 1.000000
vn 0.000000 0.000000 1.000000
vn 0.000000 0.000000 1.000000
vn 0.000000 0.000000 1.000000
vn 0.000000 0.000000 1.000000
vn 0.000000 0.000000 1.000000
vn 0.000000 0.000000 1.000000
vn 0.000000 0.000000 1.000000
vn 0.000000 0.000000 1.000000
vn 0.000000 0.000000 1.000000
vn 0.000000 0.000000 1.000000
vn 0.000000 0.000000 1.000000
vn -0.000000 -0.000000 1.000000
vn 0.000000 0.000000 1.000000
vn -0.000000 -0.000000 1.000000
vn 0.000000 0.000000 1.000000
vn 0.000000 0.000000 1.000000
vn -0.000000 -0.000000 1.000000
vn 0.573576 0.819152 -0.000000
vn 0.000000 0.000000 -0.000000
vn 0.000000 0.000000 -0.000000
vn 0.573576 0.819152 -0.000000
vn 0.000000 0.000000 0.000000
vn 0.000000 0.000000 0.000000
vn 0.000000 0.000000 0.000000
vn 0.000000 0.000000 0.000000
vn 0.000000 0.000000 0.000000
vn 0.000000 0.000000 0.000000
vn 0.000000 0.000000 0.000000
vn 0.000000 0.000000 0.000000
vn 0.573576 0.819152 -0.000000
vn 0.000000 0.000000 -0.000000
vn 0.000000 0.000000 -0.000000
vn 0.573576 0.819152 -0.000000
vn -0.000000 -0.000000 0.000000
vn -0.000000 -0.000000 1.000000
vn -0.000000 -0.000000 1.000000
vn -0.000000 -0.000000 0.000000
vn 0.000000 0.000000 0.000000
vn 0.000000 0.000000 0.000000
vn 0.000000 0.000000 0.000000
vn 0.000000 0.000000 0.000000
vn 0.000000 0.000000 0.000000
vn 0.000000 0.000000 0.000000
vn 0.000000 0.000000 0.000000
vn 0.000000 0.000000 0.000000
vn 0.000000 0.000000 1.000000
vn 0.000000 0.000000 1.000000
vn 0.000000 0.000000 1.000000
vn 0.000000 0.000000 1.000000
vn 0.000000 0.000000 0.000000
vn 0.000000 0.000000 0.000000
vn 0.000000 0.000000 0.000000
vn 0.000000 0.000000 0.000000
vn 0.000000 0.000000 0.000000
vn 0.000000 0.000000 0.000000
vn 0.000000 0.000000 0.000000
vn 0.000000 0.000000 0.000000
vn 0.000000 0.000000 0.000000
vn 0.000000 0.000000 0.000000
vn 0.000000 0.000000 0.000000
vn 0.000000 0.000000 0.000000
vn -0.000000 -0.000000 -0.000000
vn -0.000000 -0.000000 -1.000000
vn -0.000000 -0.000000 -1.000000
vn -0.000000 -0.000000 -0.000000
s 1
g Paddle_Left
usemtl initialShadingGroup
f 1/21/1 2/22/2 16/43/3 15/42/4
f 2/22/2 3/23/5 17/44/6 16/43/3
f 3/23/5 4/24/7 18/45/8 17/44/6
f 4/24/7 5/25/9 19/46/10 18/45/8
s 2
f 31/86/11 32/26/12 33/47/13 34/85/14
f 32/26/12 35/27/15 36/48/16 33/47/13
f 35/27/15 37/28/17 38/49/18 36/48/16
f 37/28/17 39/87/19 40/88/20 38/49/18
s 3
f 6/29/21 7/30/22 21/51/23 20/50/24
f 7/30/22 8/31/25 22/52/26 21/51/23
s 4
f 41/90/27 42/32/28 43/53/29 44/89/30
f 42/32/28 45/33/31 46/54/32 43/53/29
f 45/33/31 47/34/33 48/55/34 46/54/32
f 47/34/33 49/91/35 50/92/36 48/55/34
s 1
f 9/35/37 10/36/38 24/57/39 23/56/40
f 10/36/38 11/37/41 25/58/42 24/57/39
f 11/37/41 12/38/43 26/59/44 25/58/42
f 12/38/43 13/39/45 27/60/46 26/59/44
f 13/39/45 14/40/47 28/61/48 27/60/46
f 14/40/47 1/41/1 15/62/4 28/61/48
s 6
f 2/2/49 1/1/50 29/83/51
f 3/3/52 2/2/49 29/83/51
f 4/4/53 3/3/52 29/83/51
f 5/5/54 4/4/53 29/83/51
s 7
f 32/6/55 31/93/56 51/94/57
f 35/7/58 32/6/55 51/94/57
f 37/8/59 35/7/58 51/94/57
f 39/9/60 37/8/59 51/94/57
f 52/95/61 39/96/60 51/94/57
f 41/97/62 52/95/61 51/94/57
f 42/12/63 41/97/62 51/94/57
f 45/13/64 42/12/63 51/94/57
f 47/14/65 45/13/64 51/94/57
f 49/98/66 47/14/65 51/94/57
s 6
f 10/16/67 9/15/68 29/83/51
f 11/17/69 10/16/67 29/83/51
f 12/18/70 11/17/69 29/83/51
f 13/19/71 12/18/70 29/83/51
f 14/20/72 13/19/71 29/83/51
f 1/1/50 14/20/72 29/83/51
s 9
f 15/81/73 16/80/74 30/84/75
f 16/80/74 17/79/76 30/84/75
f 17/79/76 18/78/77 30/84/75
f 18/78/77 19/77/78 30/84/75
s 10
f 34/100/79 33/76/80 53/99/81
f 33/76/80 36/75/82 53/99/81
f 36/75/82 38/74/83 53/99/81
f 38/74/83 40/73/84 53/99/81
f 40/101/84 54/102/85 53/99/81
f 54/102/85 44/103/86 53/99/81
f 44/103/86 43/70/87 53/99/81
f 43/70/87 46/69/88 53/99/81
f 46/69/88 48/68/89 53/99/81
f 48/68/89 50/104/90 53/99/81
s 9
f 23/67/91 24/66/92 30/84/75
f 24/66/92 25/65/93 30/84/75
f 25/65/93 26/64/94 30/84/75
f 26/64/94 27/63/95 30/84/75
f 27/63/95 28/82/96 30/84/75
f 28/82/96 15/81/73 30/84/75
s off
f 19/46/97 5/25/98 31/86/99 34/85/100
f 6/29/101 20/50/102 40/88/103 39/87/104
f 22/52/105 8/31/106 41/90/107 44/89/108
f 9/35/109 23/56/110 50/92/111 49/91/112
f 5/5/113 29/83/114 51/94/115 31/93/116
f 7/10/117 6/105/118 39/96/119 52/95/120
f 8/11/121 7/10/122 52/95/123 41/97/124
f 29/83/125 9/15/126 49/98/127 51/94/128
f 30/84/129 19/77/130 34/100/131 53/99/132
f 20/106/133 21/72/134 54/102/135 40/101/136
f 21/72/137 22/71/138 44/103/139 54/102/140
f 23/67/141 30/84/142 53/99/143 50/104/144
